<?xml version="1.0" encoding="utf-8"?>
<!-- Generator: Adobe Illustrator 27.5.0, SVG Export Plug-In . SVG Version: 6.00 Build 0)  -->
<svg version="1.1" id="Capa_1" xmlns="http://www.w3.org/2000/svg" xmlns:xlink="http://www.w3.org/1999/xlink" x="0px" y="0px"
	 viewBox="0 0 2122 2122" style="enable-background:new 0 0 2122 2122;" xml:space="preserve">
<g>
	<path style="fill:#528B37;" d="M1024.781,599.952c19.649-96.999,71.616-194.937,71.616-194.937s25.41,80.788,42.522,159.993
		c34.476-68.05,76.088-122.194,76.088-122.194s26.426,179.904,16.046,267.318c-1.961,16.513-4.658,31.86-7.811,46.07
		c59.438-30.764,115.479-16.621,115.479-16.621s-58.802,20.031-95.697,101.733c-22.817,50.528-28.401,129.575-29.687,173.152
		c20.985,7.237,41.107,16.365,60.195,27.537c10.624-37.268,31.938-99.864,63.439-136.252
		c52.729-60.911,114.102-64.547,114.102-64.547s-72.46-34.695-152.419-0.946c17.658-34.689,36.949-71.463,51.886-97.034
		c36.797-62.99,103.056-100.38,103.056-100.38s-78.292-10.457-159.201,27.598c10.794-16.792,20.143-30.212,27.021-38.201
		c59.444-69.046,120.613-84.207,120.613-84.207s-70.915-46.114-189.475,15.34c31.095-53.904,62.011-104.656,78.601-123.927
		c59.444-69.046,120.613-84.207,120.613-84.207s-78.94-51.443-209.551,26.476c-19.785,11.803-38.469,28.668-55.585,47.78
		c2.855-13.968,5.529-29.478,8.04-47.295c15.821-112.275-53.794-279.784-53.794-279.784s-63.198,150.546-78.836,240.133
		c-27.278-89.612-78.941-173.347-78.941-173.347s-28.48,115.357-38.241,206.033c30.113,45.908,61.215,103.585,70.315,156.697
		C1018.997,554.239,1022.226,577.277,1024.781,599.952z"/>
	<path style="fill:#639635;" d="M880.154,556.261c2.974,16.327,6.611,31.434,10.632,45.372
		c19.416,8.315,39.447,21.071,58.544,40.376c23.601,23.858,41.499,52.628,55.036,81.19c18.162-49.506,43.073-80.602,43.073-80.602
		s73.1,94.503,81.897,186.53c0.872,9.122,1.443,17.946,1.805,26.523c9.804-19.228,21.692-37.955,36.18-54.747
		c17.863-20.702,37.061-34.941,55.92-44.702c3.153-14.21,5.85-29.557,7.811-46.07c10.38-87.413-16.046-267.318-16.046-267.318
		s-41.612,54.144-76.088,122.194c-17.112-79.205-42.522-159.993-42.522-159.993s-51.967,97.939-71.616,194.937
		c-2.555-22.675-5.784-45.713-9.607-68.019c-9.101-53.112-40.202-110.789-70.315-156.697
		c-33.185-50.591-65.169-86.882-65.169-86.882s-5.396,64.096-6.47,134.244C872.487,470.487,873.767,521.197,880.154,556.261z"/>
	<path style="fill:#528B37;" d="M895.628,828.711c-37.384-81.428-96.305-101.026-96.305-101.026s43.876-11.4,95.314,7.026
		c-5.033-16.945-11.072-32.99-18.343-46.67c-41.843-78.725-101.743-94.269-101.743-94.269s55.039-18.342,116.235,7.861
		c-4.021-13.938-7.658-29.046-10.632-45.372c-6.387-35.064-7.667-85.773-6.934-133.662c-0.95-0.501-1.891-1.057-2.845-1.537
		c-135.108-67.874-210.695-10.59-210.695-10.59s61.961,10.506,125.521,74.903c7.354,7.451,17.508,20.134,29.313,36.071
		c-83.066-31.856-160.531-15.511-160.531-15.511s68.409,32.299,109.002,92.363c16.479,24.383,37.991,59.615,57.746,92.89
		c-81.852-27.633-152.006,12.453-152.006,12.453s61.454-1.006,117.814,55.78c16.902,17.03,31.642,40.854,43.775,64.959
		c-76.201-26.668-142.728,5.751-142.728,5.751s61.393,3.184,114.487,63.705c33.83,38.562,56.264,107.051,66.288,142.881
		c18.513-10.019,37.996-18.119,58.308-24.496C925.741,972.13,920.772,883.477,895.628,828.711z"/>
	<path style="fill:#749B32;" d="M987.216,851.791c-5.216-49.146,4.273-93.49,17.15-128.592
		c-13.537-28.563-31.435-57.332-55.036-81.19c-19.096-19.305-39.127-32.061-58.544-40.376
		c-61.196-26.203-116.235-7.861-116.235-7.861s59.9,15.544,101.743,94.269c7.271,13.68,13.31,29.726,18.343,46.67
		c-51.438-18.427-95.314-7.026-95.314-7.026s58.921,19.598,96.305,101.026c25.145,54.767,30.113,143.419,31.041,183.512
		c29.386-9.226,60.489-14.88,92.816-17.683C1004.928,957.951,994.48,920.231,987.216,851.791z"/>
	<path style="fill:#749B32;" d="M1243.024,841.313c36.895-81.701,95.697-101.733,95.697-101.733s-56.041-14.143-115.479,16.621
		c-18.859,9.761-38.057,24-55.92,44.702c-14.489,16.792-26.376,35.519-36.18,54.747c2.681,63.36-7.486,111.484-15.502,138.629
		c34.057,2.972,66.808,9.534,97.697,20.186C1214.623,970.888,1220.207,891.842,1243.024,841.313z"/>
	<path style="fill:#8FA72B;" d="M1131.141,855.65c-0.363-8.577-0.933-17.4-1.805-26.523c-8.797-92.028-81.897-186.53-81.897-186.53
		s-24.912,31.096-43.073,80.602c-12.877,35.102-22.366,79.445-17.15,128.592c7.264,68.44,17.712,106.16,32.269,142.749
		c16.976-1.472,34.286-2.168,51.868-2.168c14.974,0,29.745,0.639,44.287,1.908C1123.655,967.135,1133.822,919.01,1131.141,855.65z"
		/>
	<path style="fill:#FBB921;" d="M804.388,1348.957c-8.143,3.975-16.286,7.948-24.317,11.773c9.279,6.809,18.699,13.598,28.23,20.362
		c-1.577-10.51-2.884-21.203-3.909-32.089C804.39,1348.987,804.389,1348.972,804.388,1348.957z"/>
	<path style="fill:#FBB921;" d="M821.035,1155.982c-12.249,6.52-24.47,12.957-36.615,19.211
		c8.373,6.695,16.942,13.383,25.624,20.062c2.947-14.062,6.623-27.117,10.973-39.225
		C821.023,1156.014,821.03,1155.999,821.035,1155.982z"/>
	<path style="fill:#FBB921;" d="M838.524,1495.985c-17.127,8.14-34.01,15.946-50.493,23.322
		c30.388,21.233,61.859,42.06,93.962,62.392c-16.707-25.996-31.387-54.619-43.462-85.694
		C838.529,1495.998,838.526,1495.991,838.524,1495.985z"/>
	<path style="fill:#FBB921;" d="M1369.615,1165.774c0.002,0.005,0.005,0.01,0.009,0.014c2.842,4.975,5.606,10.08,8.284,15.31
		c10.888,5.412,21.724,10.747,32.395,15.942c-9.122-19.459-19.711-38.103-24.586-44.88
		C1380.455,1156.722,1375.064,1161.244,1369.615,1165.774z"/>
	<path style="fill:#FBB921;" d="M1391.837,1211.282c0.005,0.01,0.01,0.02,0.014,0.031c10.109,24.417,18.608,51.256,25.232,80.575
		c7.308-6.097,14.482-12.199,21.493-18.301c-2.636-9.14-13.164-42.327-15.922-47.551
		C1412.5,1221.272,1402.203,1216.322,1391.837,1211.282z"/>
	<path style="fill:#FBB921;" d="M1287.111,1050.476c-4.181,3.344-8.433,6.688-12.7,10.03c0.005,0.003,0.01,0.006,0.015,0.01
		c31.676,21.682,60.225,50.508,84.094,87.091c5.207-4.378,10.345-8.756,15.399-13.159c-24.578-34.399-53.302-61.722-85.219-82.894
		C1287.225,1050.576,1288.016,1051.099,1287.111,1050.476z"/>
	<path style="fill:#FBB921;" d="M1018.115,994.66c-31.836,2.844-62.475,8.468-91.446,17.563
		c-20.312,6.377-39.795,14.477-58.308,24.496c-5.821,3.151-11.533,6.518-17.155,10.059c9.193,7.272,18.643,14.54,28.229,21.794
		c38.359-32.941,88.421-49.137,144.563-55.919c3.596-2.33,7.236-4.625,10.814-6.969c-5.413-3.715-10.827-7.36-16.133-11.075
		C1018.678,994.61,1018.571,994.62,1018.115,994.66z"/>
	<path style="fill:#FBB921;" d="M1213.337,1014.466c-30.889-10.652-63.64-17.214-97.697-20.186
		c-7.672-0.669-15.408-1.16-23.204-1.475l-0.676-0.033c-6.263,4.352-12.687,8.773-19.054,13.019
		c1.561,1.029,3.156,2.036,4.722,3.063c7.408-0.209,14.871-0.307,22.404-0.307c54.714,0,108.122,12.699,155.597,40.025
		c4.158-3.235,8.307-6.471,12.399-9.715C1250.433,1029.144,1232.259,1020.991,1213.337,1014.466z"/>
	<path style="fill:#FBB921;" d="M799.353,1088.435c-8.548,21.987-16.199,44.473-22.902,67.34c19.293-9.911,38.723-20.2,58.246-30.82
		c8.412-15.815,18.264-29.604,29.379-41.599c0.012-0.012,0.023-0.023,0.035-0.035c-10.549-8.033-20.97-16.082-31.077-24.14
		c0,0-16.521,12.146-31.91,27.361L799.353,1088.435z"/>
	<path style="fill:#FBB921;" d="M831.333,1476.277c-7.157-20.937-13.16-42.919-17.851-65.884c-0.003-0.014-0.004-0.027-0.008-0.04
		c-18.794-13.067-37.205-26.251-55.057-39.54c-4.997,2.322-9.939,4.577-14.882,6.832c0,0.008,0,0.016,0,0.023
		c-0.099,39.504,3.035,78.698,9.694,116.811c4.971,3.609,9.916,7.223,14.954,10.816
		C788.654,1496.3,809.797,1486.545,831.333,1476.277z"/>
	<path style="fill:#FBB921;" d="M896.614,1615.365c-45.11-27.808-89.16-56.679-130.979-86.187c-1.618,0.708-3.185,1.358-4.796,2.057
		c0.003,0.009,0.004,0.019,0.007,0.029c10.476,43.549,25.886,85.367,46.691,124.274
		C836.039,1643.435,865.763,1630.078,896.614,1615.365z"/>
	<path style="fill:#FBB921;" d="M857.174,1729.998c0.028,0.034,0.055,0.07,0.083,0.104c9.481,11.544,19.577,22.651,30.358,33.332
		c4.568-2.062,9.154-4.142,13.775-6.263C886.559,1748.231,871.828,1739.149,857.174,1729.998z"/>
	<path style="fill:#FBB921;" d="M802.682,1326.478c-2.425-40.806-1.183-76.565,3.273-107.858c0.001-0.007,0.003-0.014,0.003-0.021
		c-13.134-9.977-25.95-19.984-38.407-30.005c-0.001,0.007-0.004,0.014-0.005,0.022c-11.904,47.739-19.633,96.727-22.62,145.584
		c5.322,4.109,10.698,8.212,16.142,12.307C774.766,1340.088,788.681,1333.352,802.682,1326.478z"/>
	<path style="fill:#FBB921;" d="M924.21,1746.451c26.267-12.366,53.217-25.665,80.557-39.69
		c-31.55-20.45-61.399-46.597-87.99-77.984c-0.001-0.002-0.003-0.003-0.003-0.004c-34.156,16.466-67.325,31.576-98.912,45.085
		c0.005,0.009,0.01,0.019,0.016,0.028c2.025,3.41,4.086,6.78,6.198,10.14C856.782,1705.418,890.302,1726.371,924.21,1746.451z"/>
	<path style="fill:#FBB921;" d="M1203.721,1757.891C1203.721,1757.891,1203.721,1757.891,1203.721,1757.891
		c-0.014,0.008-0.026,0.015-0.039,0.023c41.078,19.212,80.457,36.195,116.863,50.418c38.954-25.369,76.846-51.373,112.724-77.696
		c-26.557-8.177-55.846-18.654-87.225-31.025c-0.002,0.002-0.004,0.004-0.006,0.005
		C1311.291,1729.884,1264.687,1750.275,1203.721,1757.891z"/>
	<path style="fill:#FBB921;" d="M1433.377,1435.193c6.854-5.498,13.638-11,20.271-16.509c-6.934-2.805-14.013-5.755-21.125-8.74
		c0,0.011,0.001,0.021,0.002,0.032C1432.926,1418.232,1433.212,1426.653,1433.377,1435.193z"/>
	<path style="fill:#FBB921;" d="M1413.779,1593.503c9.483-7.098,18.828-14.211,27.981-21.339
		c-6.513-2.404-13.187-4.956-19.894-7.539c-0.003,0.01-0.004,0.021-0.006,0.031
		C1419.543,1574.551,1416.855,1584.182,1413.779,1593.503z"/>
	<path style="fill:#FBB921;" d="M1421.866,1315.258c0.002,0.012,0.005,0.024,0.007,0.036c4.123,22.4,7.211,46.145,9.173,71.293
		c10.495,4.465,20.876,8.812,30.986,12.885c-2.56-22.918-13.954-91.396-17.407-103.171
		C1437.203,1302.623,1429.581,1308.943,1421.866,1315.258z"/>
	<path style="fill:#FBB921;" d="M1398.517,1630.83c-0.006,0.012-0.011,0.025-0.017,0.036c-9.681,19.415-21.573,37.064-35.952,52.684
		c30.754,11.876,59.283,21.753,84.945,29.359c0,0,14.212-73.738,17.71-132.268l-0.09-0.09
		C1443.815,1597.406,1421.545,1614.195,1398.517,1630.83z"/>
	<path style="fill:#FBB921;" d="M1436.984,1753.88c-29.614,21.548-60.608,42.776-92.344,63.58
		c9.934,3.68,19.583,7.128,28.979,10.355c16.56-8.871,32.621-18.753,48.042-29.592
		C1425.8,1787.191,1436.984,1753.88,1436.984,1753.88z"/>
	<path style="fill:#FBB921;" d="M1433.469,1461.924c0,0.025,0,0.051,0,0.076c-0.436,28.618-2.768,56.003-7.329,81.761
		c11.923,4.641,23.629,9.091,34.831,13.12c1.911-1.486,3.716-2.971,5.521-4.564c0-14.189-1.379-106.307-1.379-115.801
		C1454.86,1444.991,1444.245,1453.462,1433.469,1461.924z"/>
	<path style="fill:#FBB921;" d="M999.819,1845.449c10.004-4.979,20.077-10.062,30.216-15.252
		c-35.559-19.106-71.434-39.166-106.992-60.183c-6.45,3.009-12.769,5.869-19.126,8.771c0.014,0.013,0.027,0.026,0.042,0.039
		c10.248,9.17,21.019,17.947,32.353,26.324C956.362,1821.189,977.646,1834.58,999.819,1845.449z"/>
	<path style="fill:#FBB921;" d="M1347.351,1840.847c-8.039-2.925-16.19-5.945-24.575-9.164
		c-20.734,13.245-41.706,26.277-62.831,39.077c0.039-0.009,0.078-0.016,0.117-0.025c29.81-6.95,59.119-16.992,87.251-29.868
		C1347.325,1840.859,1347.338,1840.854,1347.351,1840.847z"/>
	<path style="fill:#FBB921;" d="M1052.324,1842.085c-9.327,4.849-18.609,9.599-27.851,14.281c0.004,0.001,0.009,0.004,0.014,0.005
		c33.365,13.25,68.333,21.196,103.919,24.272c0.041,0.004,0.083,0.005,0.124,0.008
		C1103.496,1868.46,1078.067,1855.645,1052.324,1842.085z"/>
	<path style="fill:#FBB921;" d="M1298.681,1822.236c-36.619-14.754-75.998-32.055-116.862-51.479
		c-35.664,20.803-71.54,40.757-106.992,59.545c35.663,18.45,70.656,35.702,104.438,51.478c8.051-0.324,16.115-0.884,24.16-1.674
		C1235.524,1861.464,1267.361,1842.081,1298.681,1822.236z"/>
	<path style="fill:#FBB921;" d="M1025.704,1719.362c0,0-0.001,0-0.002-0.001c-26.997,14.025-53.636,27.377-79.732,39.827
		c35.45,20.804,71.22,40.653,106.565,59.334c35.24-18.469,71.01-38.106,106.567-58.698c-0.288-0.14-0.582-0.288-0.871-0.428
		c-0.004,0-0.008,0-0.013,0C1113.97,1756.92,1068.608,1743.25,1025.704,1719.362z"/>
	<path style="fill:#E18800;" d="M1077.364,1008.854c0.021,0,0.042,0,0.063,0c-1.566-1.027-3.161-2.034-4.722-3.063
		c6.367-4.246,12.791-8.667,19.054-13.019c0,0-10.736-0.748-17.964-0.677c-7.227,0.071-18.09,0.465-18.09,0.465l-1.729,0.044
		l-1.452,0.026c-11.57,0.211-22.595,1.025-33.846,1.981c5.306,3.715,10.72,7.359,16.133,11.075
		c-3.578,2.344-7.218,4.639-10.814,6.969c0.049-0.006,0.098-0.013,0.147-0.02C1041.363,1010.56,1059.166,1009.37,1077.364,1008.854z
		"/>
	<path style="fill:#E18800;" d="M767.552,1188.593c12.457,10.021,25.273,20.028,38.407,30.005c1.149-8.063,2.512-15.838,4.08-23.318
		c0.001-0.009,0.003-0.016,0.006-0.024c-8.681-6.679-17.25-13.367-25.624-20.062c12.144-6.255,24.365-12.692,36.615-19.211
		c3.988-11.095,8.543-21.398,13.624-30.96c0.012-0.023,0.026-0.044,0.038-0.067c-19.523,10.621-38.954,20.91-58.246,30.82
		c-0.006,0.021-0.012,0.041-0.018,0.061C773.256,1166.68,770.293,1177.603,767.552,1188.593z"/>
	<path style="fill:#E18800;" d="M1431.047,1386.587c0.001,0.015,0.002,0.029,0.004,0.043c0.597,7.649,1.087,15.404,1.472,23.313
		c7.112,2.985,14.191,5.935,21.125,8.74c-6.633,5.508-13.417,11.011-20.271,16.509c0,0.01,0,0.02,0.001,0.03
		c0.091,4.746,0.146,9.534,0.163,14.368c0.014,4.137-0.01,8.245-0.071,12.333c10.775-8.462,21.391-16.933,31.643-25.409
		c-0.327-5.554-0.738-11.045-1.179-16.499c-0.163-2.017-0.341-4.004-0.517-6.004c-0.433-4.89-0.876-9.77-1.382-14.54
		C1451.923,1395.4,1441.542,1391.052,1431.047,1386.587z"/>
	<path style="fill:#E18800;" d="M1377.933,1181.145c4.923,9.613,9.559,19.646,13.904,30.137c10.365,5.04,20.663,9.99,30.818,14.754
		c-1.519-4.006-3.122-7.893-4.734-11.765c-0.812-1.951-1.629-3.888-2.463-5.805c-0.969-2.227-1.962-4.41-2.957-6.591
		c-0.726-1.594-1.42-3.246-2.159-4.815c-0.014-0.006-0.026-0.013-0.04-0.019c-10.671-5.195-21.507-10.53-32.395-15.942
		C1377.916,1181.114,1377.925,1181.129,1377.933,1181.145z"/>
	<path style="fill:#E18800;" d="M1358.526,1147.617c3.821,5.857,7.514,11.899,11.089,18.157c5.449-4.53,10.84-9.053,16.102-13.614
		c-1.814-3.005-3.708-5.931-5.637-8.81c-0.13-0.194-0.259-0.387-0.39-0.58c-1.652-2.453-3.331-4.863-5.013-7.259
		c-0.249-0.356-0.494-0.723-0.743-1.077c-0.005,0.005-0.011,0.01-0.016,0.014c-5.053,4.403-10.192,8.781-15.399,13.159
		C1358.522,1147.611,1358.524,1147.614,1358.526,1147.617z"/>
	<path style="fill:#E18800;" d="M882.023,1581.748c-0.01-0.016-0.02-0.033-0.03-0.049c-32.104-20.332-63.574-41.159-93.962-62.392
		c16.484-7.376,33.367-15.183,50.493-23.322c-2.505-6.447-4.902-13.01-7.179-19.668c-0.005-0.013-0.008-0.026-0.013-0.04
		c-21.536,10.267-42.678,20.023-63.151,29.019c-5.038-3.593-9.983-7.208-14.954-10.816c0.004,0.021,0.007,0.043,0.01,0.064
		c2.161,12.363,4.686,24.573,7.6,36.691c1.61-0.699,3.177-1.349,4.796-2.057c41.82,29.508,85.869,58.379,130.979,86.187
		c-30.851,14.713-60.575,28.07-89.078,40.173c0.007,0.013,0.014,0.026,0.02,0.039c3.296,6.163,6.737,12.266,10.306,18.281
		c31.586-13.509,64.756-28.619,98.912-45.085C904.435,1614.206,892.816,1598.539,882.023,1581.748z"/>
	<path style="fill:#E18800;" d="M1417.084,1291.888c0.001,0.002,0.002,0.005,0.002,0.007c1.72,7.616,3.316,15.409,4.781,23.363
		c7.715-6.316,15.336-12.635,22.76-18.957c-0.641-2.752-1.342-5.449-2.036-8.152c-0.546-2.125-1.107-4.245-1.686-6.346
		c-0.758-2.75-1.513-5.501-2.328-8.217C1431.565,1279.689,1424.392,1285.791,1417.084,1291.888z"/>
	<path style="fill:#E18800;" d="M1460.971,1556.88c-11.201-4.028-22.908-8.479-34.831-13.12c-0.004,0.018-0.006,0.037-0.009,0.055
		c-1.252,7.066-2.67,13.997-4.265,20.81c6.708,2.583,13.381,5.135,19.894,7.539c-9.153,7.127-18.498,14.241-27.981,21.339
		c-0.002,0.007-0.004,0.014-0.006,0.021c-4.302,13.038-9.37,25.498-15.255,37.305c23.027-16.635,45.298-33.424,66.595-50.279
		l0.106,0.106c0.124-1.789,0.201-3.624,0.308-5.429c0.218-3.663,0.418-7.344,0.57-11.074c0.16-3.917,0.306-7.847,0.395-11.837
		C1464.687,1553.909,1462.882,1555.394,1460.971,1556.88z"/>
	<path style="fill:#E18800;" d="M1347.351,1840.847c8.871-4.061,17.636-8.408,26.256-13.026c0.004-0.002,0.008-0.004,0.012-0.006
		c-9.395-3.227-19.045-6.675-28.979-10.355c31.736-20.804,62.73-42.032,92.344-63.58l10.508-40.971
		c-25.663-7.606-54.191-17.484-84.945-29.359c-0.005,0.005-0.007,0.009-0.012,0.014c-5.174,5.619-10.664,10.971-16.491,16.047
		c31.379,12.371,60.669,22.847,87.225,31.025c-35.878,26.324-73.769,52.327-112.724,77.696
		c-36.406-14.223-75.785-31.206-116.863-50.418c0.013-0.008,0.025-0.015,0.038-0.023c-0.158,0.02-0.301,0.037-0.46,0.057
		c-10.04,1.242-20.222,1.858-30.472,1.858c-4.837,0-9.686-0.138-14.556-0.41c0.289,0.14,0.582,0.288,0.871,0.428
		c-35.558,20.592-71.327,40.229-106.567,58.698c-35.345-18.682-71.115-38.53-106.565-59.334
		c26.096-12.45,52.735-25.802,79.732-39.827c-7.051-3.926-14.026-8.122-20.928-12.596c-0.002-0.001-0.005-0.002-0.006-0.004
		c-27.34,14.025-54.291,27.324-80.557,39.69c-33.908-20.08-67.429-41.032-100.133-62.425c0.021,0.032,0.04,0.066,0.061,0.099
		c9.999,15.889,21.008,31.218,33.036,45.873c14.653,9.151,29.385,18.233,44.215,27.173c-4.62,2.121-9.206,4.202-13.775,6.263
		c0.002,0.001,0.003,0.003,0.004,0.005c5.265,5.216,10.716,10.35,16.298,15.346c6.357-2.902,12.676-5.762,19.126-8.771
		c35.558,21.017,71.434,41.077,106.992,60.183c-10.139,5.19-20.212,10.273-30.216,15.252c0.001,0,0.002,0.001,0.003,0.001
		c8.104,3.972,16.327,7.609,24.652,10.915c9.243-4.681,18.525-9.432,27.851-14.281c25.743,13.56,51.172,26.375,76.205,38.566
		c11.355,0.978,22.78,1.465,34.217,1.465c5.468,0,10.938-0.11,16.413-0.329c0.035-0.001,0.07-0.005,0.105-0.006
		c-33.782-15.776-68.775-33.028-104.438-51.478c35.452-18.788,71.328-38.742,106.992-59.545
		c40.865,19.424,80.243,36.725,116.862,51.479c-31.319,19.845-63.156,39.228-95.255,57.87c0.037-0.003,0.075-0.006,0.113-0.009
		c18.905-1.862,37.751-4.994,56.406-9.338c21.125-12.8,42.097-25.832,62.831-39.077
		C1331.16,1834.903,1339.312,1837.922,1347.351,1840.847z"/>
	<path style="fill:#E18800;" d="M879.415,1068.588c0.006-0.005,0.013-0.01,0.019-0.016c-9.593-7.26-19.051-14.533-28.25-21.811
		l-18.15,12.419c10.107,8.059,20.528,16.107,31.077,24.14C868.976,1078.074,874.083,1073.168,879.415,1068.588z"/>
	<path style="fill:#E18800;" d="M758.417,1370.813c17.853,13.289,36.263,26.473,55.057,39.54
		c-1.956-9.581-3.683-19.331-5.172-29.254c0-0.002-0.001-0.005-0.001-0.008c-9.531-6.764-18.952-13.552-28.23-20.362
		c8.031-3.826,16.174-7.798,24.317-11.773c-0.451-4.8-0.849-9.632-1.19-14.505c-0.187-2.665-0.357-5.295-0.513-7.918
		c-0.002-0.02-0.002-0.037-0.003-0.056c-14.001,6.875-27.916,13.61-41.613,20.029c-5.444-4.096-10.82-8.199-16.142-12.307
		c0,0.002,0,0.005,0,0.007c-0.886,14.503-1.355,28.992-1.392,43.44C748.478,1375.39,753.42,1373.136,758.417,1370.813z"/>
	<path style="fill:#E18800;" d="M1274.411,1060.506c4.268-3.342,8.52-6.686,12.7-10.03c-6.264-4.139-12.737-8.066-19.213-11.676
		c-4.115,3.262-8.289,6.518-12.472,9.771c0.005,0.003,0.011,0.006,0.016,0.009
		C1261.883,1052.287,1268.201,1056.257,1274.411,1060.506z"/>
	<path style="fill:#F39311;" d="M809.047,1930.184c25.58-9.766,52.752-20.911,81.092-33.329
		c-36.62-21.441-73.026-43.837-108.371-66.87c-13.479,4.989-26.43,9.658-38.953,13.905c0,0-0.115-0.144,1.911,3.485
		c17.628,31.587,38.199,58.044,61.234,79.961c0.108,0.102,0.214,0.208,0.321,0.31c0.403,0.382,0.796,0.782,1.201,1.161
		C808.927,1930.163,809.047,1930.184,809.047,1930.184z"/>
	<path style="fill:#F39311;" d="M959.449,2007.136c22.716-10.402,46.067-21.548,69.736-33.223
		c-38.53-20.06-77.697-41.501-116.756-64.004c-29.718,13.266-58.375,25.26-85.333,35.767c0.807,0.636,1.629,1.243,2.441,1.87
		c1.586,1.225,3.164,2.465,4.77,3.654c0.022,0.016,0.044,0.032,0.066,0.049c1.456,1.078,2.938,2.106,4.41,3.155
		c1.163,0.829,2.312,1.682,3.484,2.493c0.562,0.388,1.136,0.752,1.701,1.137c1.648,1.124,3.305,2.231,4.972,3.319
		c0.479,0.313,0.95,0.645,1.431,0.955c0.882,0.569,1.782,1.104,2.669,1.663c1.758,1.108,3.513,2.222,5.29,3.292
		c1.095,0.66,2.207,1.286,3.31,1.931c1.643,0.962,3.283,1.932,4.943,2.863c1.185,0.665,2.386,1.298,3.579,1.946
		c1.599,0.87,3.195,1.747,4.808,2.588c1.237,0.645,2.488,1.261,3.733,1.889c1.595,0.806,3.188,1.616,4.796,2.395
		c1.275,0.617,2.564,1.207,3.848,1.807c1.594,0.746,3.185,1.495,4.792,2.215c1.324,0.594,2.66,1.162,3.992,1.738
		c1.586,0.686,3.172,1.375,4.77,2.036c1.367,0.566,2.745,1.109,4.12,1.657c1.583,0.632,3.166,1.264,4.76,1.872
		c1.406,0.536,2.823,1.053,4.237,1.571c1.584,0.581,3.167,1.16,4.762,1.719c1.435,0.502,2.878,0.987,4.321,1.472
		c1.598,0.537,3.197,1.071,4.804,1.587c1.453,0.465,2.914,0.917,4.375,1.365c1.619,0.497,3.241,0.989,4.87,1.465
		c1.468,0.429,2.942,0.844,4.417,1.255c1.635,0.456,3.273,0.906,4.918,1.341c1.491,0.394,2.988,0.778,4.486,1.156
		c1.653,0.416,3.309,0.825,4.971,1.22c0.727,0.174,1.447,0.365,2.177,0.534C958.204,2006.908,959.449,2007.136,959.449,2007.136z"/>
	<path style="fill:#F39311;" d="M733.155,1824.89c8.702-2.865,17.62-5.943,26.854-9.234c-14.648-9.659-28.977-19.424-43.094-29.19
		C718.37,1790.518,729.566,1816.378,733.155,1824.89z"/>
	<path style="fill:#F39311;" d="M1179.265,1881.781c-0.035,0.001-0.07,0.005-0.105,0.006c3.982,1.86,7.947,3.698,11.892,5.514
		c4.165-2.387,8.329-4.79,12.486-7.204c-0.037,0.004-0.075,0.006-0.113,0.009
		C1195.379,1880.897,1187.316,1881.457,1179.265,1881.781z"/>
	<path style="fill:#F39311;" d="M744.927,1334.206c0-0.002,0-0.005,0-0.007c2.987-48.857,10.715-97.845,22.62-145.584
		c-1.207-0.971-2.411-1.942-3.611-2.914c-13.475,6.791-26.846,13.371-40.11,19.842c-10.208,24.761-18.968,52.117-26.113,82.322
		c-0.021,0.087-0.041,0.174-0.062,0.261c-0.528,2.234-1.014,4.543-1.524,6.809C711.782,1308.087,728.047,1321.177,744.927,1334.206z
		"/>
	<path style="fill:#F39311;" d="M1393.281,1856.495c-14.516-4.533-29.881-9.775-45.969-15.629
		c-28.132,12.877-57.441,22.919-87.251,29.868c-15.135,9.171-30.358,18.206-45.658,27.075
		c37.863,16.864,73.816,31.605,106.911,43.806C1348.526,1919.151,1372.783,1891.149,1393.281,1856.495z"/>
	<path style="fill:#F39311;" d="M817.879,1673.886c-1.889,0.808-3.771,1.609-5.648,2.406c3.955,2.617,7.925,5.229,11.907,7.834
		c-0.021-0.033-0.04-0.067-0.061-0.099C821.965,1680.666,819.904,1677.296,817.879,1673.886z"/>
	<path style="fill:#F39311;" d="M675.368,1508.159c0,15.808,0.521,30.661,0.575,34.923c22.079-8.279,45.429-17.619,69.736-28.022
		c-24.094-17.406-47.339-34.92-69.417-52.435c0,0-0.25,3.01-0.287,5.061C675.938,1469.737,675.368,1493.029,675.368,1508.159z"/>
	<path style="fill:#F39311;" d="M741.771,1167.354c-1.433,2.681-2.807,5.473-4.2,8.231c2.847-1.475,5.796-2.951,8.746-4.425
		C744.836,1169.891,743.252,1168.624,741.771,1167.354z"/>
	<path style="fill:#F39311;" d="M1024.487,1856.371c-30.212,15.301-59.905,29.673-88.602,42.924
		c38.955,22.184,78.016,43.412,116.333,63.048c38.318-19.424,77.483-40.333,116.651-62.412
		c-13.337-6.219-26.836-12.651-40.463-19.288C1092.82,1877.567,1057.852,1869.622,1024.487,1856.371z"/>
	<path style="fill:#F39311;" d="M936.311,1805.147c-11.334-8.377-22.105-17.154-32.353-26.324
		c-34.28,15.653-67.157,29.721-97.991,41.821c35.241,22.714,71.327,44.686,107.629,65.809
		c27.898-12.602,56.742-26.328,86.225-41.002c0,0-0.001-0.001-0.003-0.001C977.646,1834.58,956.362,1821.189,936.311,1805.147z"/>
	<path style="fill:#F39311;" d="M1052.113,1985.696c-19.422,9.764-38.63,19.103-57.416,28.017
		c18.603,2.669,37.666,4.254,57.101,4.879c0.238,0.008,0.48,0.004,0.717,0.011c6.244,0.194,12.521,0.299,18.838,0.299
		c0.13,0,0.264,0,0.393,0c0.04,0,0.084,0,0.124,0c0.093,0,0.195,0,0.287,0c0.04,0,0.083,0,0.123,0c0.13,0,0.26,0,0.39,0
		c0.027,0,0.05,0,0.077,0c0.102,0,0.211,0,0.313-0.001c0.04,0,0.088,0,0.128,0c0.278,0,0.548-0.002,0.826-0.003l0.02,0
		c0.347-0.001,0.686-0.022,1.032-0.024c7.171-0.041,14.293-0.206,21.366-0.496c0.679-0.028,1.359-0.054,2.038-0.084
		c5.925-0.264,11.792-0.677,17.644-1.125C1095.133,2007.205,1073.728,1996.716,1052.113,1985.696z"/>
	<path style="fill:#F39311;" d="M1192.115,1910.652c-39.168,22.397-78.335,43.519-116.863,63.368
		c27.374,13.687,54.217,26.632,80.32,38.623c2.632-0.417,5.261-0.84,7.873-1.301c0.486-0.086,0.97-0.177,1.455-0.264
		c3.075-0.553,6.137-1.135,9.182-1.752c0.424-0.086,0.848-0.173,1.271-0.26c3.207-0.659,6.398-1.352,9.573-2.083
		c0.208-0.048,0.418-0.095,0.627-0.143c42.057-9.763,81.163-25.919,116.043-50.142
		C1267.54,1943.646,1230.622,1928.156,1192.115,1910.652z"/>
	<path style="fill:#F39311;" d="M692.608,1699.324c23.351-7.643,48.613-16.877,75.362-27.491
		c-30.57-20.91-60.184-42.139-88.311-63.579c0,0,0.193,3.569,0.687,8.648c0.003,0.025,0.006,0.049,0.008,0.074
		C683.578,1650.043,692.608,1699.324,692.608,1699.324z"/>
	<path style="fill:#F39311;" d="M887.619,1763.439l-0.004-0.005c-10.78-10.681-20.877-21.788-30.358-33.332
		c-23.141-14.451-45.998-29.149-68.378-44.047c-32.904,13.373-63.79,24.837-91.813,33.965l8.704,32.905
		c25.368,18.15,51.692,36.088,78.544,53.708C816.569,1794.374,851.252,1779.851,887.619,1763.439z"/>
	<path style="fill:#F39311;" d="M760.846,1531.264c-29.569,12.828-57.77,24.126-84.159,33.896c0,0,0.264,6.559,0.774,14.99
		c35.654,27.801,73.963,55.285,113.86,82.237c5.362-2.22,10.776-4.491,16.236-6.809c-0.007-0.013-0.013-0.026-0.02-0.039
		C786.732,1616.63,771.322,1574.813,760.846,1531.264z"/>
	<path style="fill:#F39311;" d="M766.802,1160.758c3.206-1.63,6.416-3.27,9.631-4.921c0.006-0.02,0.013-0.041,0.018-0.061
		c6.702-22.867,14.354-45.353,22.902-67.34c-17.18,17.272-32.912,37.282-46.973,60.339l0,0
		C757.151,1152.7,761.925,1156.728,766.802,1160.758z"/>
	<path style="fill:#F39311;" d="M1403.737,1837.619L1403.737,1837.619c6.413-12.371,12.395-25.487,17.924-39.395
		c-15.422,10.839-31.482,20.72-48.042,29.592c-0.004,0.002-0.008,0.005-0.012,0.006
		C1383.99,1831.389,1394.039,1834.665,1403.737,1837.619z"/>
	<path style="fill:#F39311;" d="M681.888,1381.958c18.682-7.854,37.894-16.345,57.635-25.368
		c-16.558-12.631-32.692-25.369-48.187-38.104c1.233-7.209,2.727-14.221,4.242-21.092c-0.422,1.909-0.867,3.776-1.277,5.707
		c-0.049,0.234-0.1,0.465-0.15,0.7c-1.074,5.089-2.105,10.255-3.092,15.498c-0.022,0.12-0.046,0.239-0.069,0.359
		c-3.023,16.11-5.626,32.957-7.796,50.558c-0.102,0.832-0.193,1.687-0.293,2.524
		C682.469,1376.319,681.888,1381.958,681.888,1381.958z"/>
	<path style="fill:#F39311;" d="M753.228,1494.48c-6.659-38.112-9.794-77.307-9.694-116.811
		c-21.951,10.017-43.357,19.36-63.981,27.853c0,0-0.306,3.513-0.477,5.649c-0.309,3.857-0.601,7.745-0.872,11.668
		c-0.162,2.35-0.318,4.71-0.466,7.084c-0.135,2.154-0.248,4.345-0.372,6.519c23.955,19.484,49.416,38.895,75.874,58.102
		C753.235,1494.522,753.232,1494.501,753.228,1494.48z"/>
	<path style="fill:#DC6D03;" d="M679.659,1608.254c28.127,21.44,57.741,42.669,88.311,63.579
		c-26.749,10.614-52.011,19.848-75.362,27.491c1.381,7.111,2.866,13.905,4.458,20.697c28.023-9.128,58.91-20.592,91.813-33.965
		c22.38,14.898,45.238,29.596,68.378,44.047c-0.028-0.035-0.054-0.07-0.083-0.104c-12.028-14.655-23.037-29.984-33.036-45.873
		c-3.982-2.604-7.952-5.217-11.907-7.834c1.877-0.796,3.759-1.597,5.648-2.406c-0.005-0.009-0.01-0.019-0.016-0.028
		c-3.569-6.014-7.01-12.117-10.306-18.281c-5.459,2.318-10.874,4.589-16.236,6.809c-39.897-26.952-78.207-54.436-113.86-82.237
		l-0.001-0.001c0.056,0.924,0.116,1.843,0.174,2.764c0.04,0.642,0.079,1.287,0.12,1.927c0.005,0.062,0.008,0.123,0.013,0.185
		C678.325,1592.906,678.955,1600.69,679.659,1608.254z"/>
	<path style="fill:#DC6D03;" d="M1373.606,1827.822c-8.62,4.617-17.385,8.965-26.256,13.026c-0.013,0.006-0.026,0.012-0.039,0.019
		c16.088,5.855,31.453,11.096,45.969,15.629c0,0,0,0,0,0c3.602-6.088,7.087-12.378,10.456-18.876
		C1394.039,1834.665,1383.99,1831.389,1373.606,1827.822z"/>
	<path style="fill:#DC6D03;" d="M1075.252,1974.02c38.528-19.849,77.695-40.971,116.863-63.368
		c38.507,17.504,75.425,32.994,109.482,46.046l0,0c0.322-0.224,0.652-0.454,0.973-0.679l17.318-13.222l1.506-1.15
		c-0.027-0.009-0.055-0.021-0.081-0.031c-33.095-12.201-69.048-26.942-106.911-43.806c15.299-8.869,30.522-17.904,45.658-27.075
		c-0.039,0.009-0.078,0.016-0.117,0.025c-18.655,4.343-37.501,7.476-56.406,9.338c-4.157,2.414-8.321,4.817-12.486,7.204
		c-3.945-1.816-7.91-3.654-11.892-5.514c-5.474,0.219-10.945,0.329-16.413,0.329c-11.437,0-22.862-0.487-34.217-1.465
		c-0.041-0.004-0.083-0.004-0.124-0.008c13.627,6.637,27.126,13.07,40.463,19.288c-39.167,22.078-78.333,42.987-116.651,62.412
		c-38.317-19.635-77.377-40.864-116.333-63.048c28.696-13.251,58.39-27.623,88.602-42.924c-0.005-0.002-0.01-0.004-0.014-0.005
		c-8.325-3.306-16.548-6.943-24.652-10.915c-29.483,14.674-58.327,28.4-86.225,41.002c-36.302-21.123-72.388-43.095-107.629-65.809
		c30.834-12.099,63.711-26.168,97.991-41.821c-0.015-0.012-0.027-0.026-0.042-0.039c-5.581-4.996-11.033-10.129-16.298-15.346
		c-36.367,16.412-71.05,30.935-103.304,43.195c-26.852-17.62-53.177-35.558-78.544-53.708c1.662,5.713,3.406,11.293,5.221,16.765
		c0.021,0.063,0.039,0.131,0.06,0.194c0.05,0.149,0.101,0.296,0.15,0.444c0.036,0.109,0.077,0.211,0.113,0.319
		c1.796,5.375,3.657,10.652,5.601,15.818c14.117,9.766,28.446,19.531,43.094,29.19c-9.234,3.291-18.152,6.369-26.854,9.234
		c1.417,3.029,2.864,5.999,4.335,8.928c0.031,0.061,0.06,0.126,0.091,0.188c0.318,0.633,0.649,1.247,0.97,1.873
		c0.07,0.137,0.145,0.267,0.214,0.404c1.326,2.574,2.659,5.133,4.049,7.607c12.523-4.247,25.474-8.916,38.953-13.905
		c35.345,23.033,71.752,45.429,108.371,66.87c-28.34,12.419-55.512,23.563-81.092,33.329c1.762,1.665,3.544,3.302,5.341,4.907
		c0.025,0.022,0.05,0.045,0.075,0.067c0.422,0.371,0.861,0.705,1.284,1.074c0.033,0.029,0.068,0.055,0.101,0.084
		c3.074,2.677,6.183,5.279,9.337,7.808c0.248,0.199,0.484,0.415,0.732,0.613c0.182,0.145,0.356,0.305,0.538,0.45
		c0.021,0.016,0.043,0.033,0.064,0.05c0.076,0.06,0.153,0.119,0.229,0.179c0.113,0.088,0.227,0.177,0.34,0.265
		c0.002-0.001,0.004-0.001,0.006-0.002c26.959-10.507,55.615-22.501,85.333-35.767c39.059,22.503,78.225,43.943,116.756,64.004
		c-23.669,11.675-47.021,22.821-69.736,33.223c2.787,0.665,5.581,1.292,8.383,1.886c0.006,0.001,0.014,0.003,0.02,0.005
		c0.548,0.113,1.105,0.203,1.654,0.315c1.31,0.265,2.634,0.498,3.95,0.752c2,0.387,3.995,0.786,6.007,1.145
		c0.179,0.032,0.355,0.07,0.534,0.102c0.499,0.089,0.994,0.188,1.495,0.275c3.976,0.691,7.98,1.318,12.002,1.906
		c0.013,0.002,0.026,0.005,0.039,0.007c0.39,0.057,0.773,0.129,1.164,0.185l0,0h0.001c18.785-8.915,37.994-18.254,57.416-28.017
		c21.615,11.02,43.02,21.509,64.002,31.472c0.035,0.017,0.071,0.034,0.106,0.051c0.001,0,0.001,0.001,0.001,0.001
		c1.494-0.107,2.984-0.221,4.473-0.344c0.054-0.005,0.106-0.012,0.16-0.017c2.199-0.188,4.354-0.482,6.543-0.698
		c4.043-0.398,8.085-0.797,12.088-1.289c0.903-0.111,1.826-0.175,2.727-0.291c4.209-0.548,8.383-1.157,12.53-1.802
		c0.106-0.016,0.215-0.029,0.321-0.046c0.178-0.028,0.36-0.049,0.537-0.077c-0.004-0.002-0.009-0.005-0.013-0.006
		c-0.006-0.003-0.01-0.005-0.016-0.007C1129.469,2000.652,1102.626,1987.707,1075.252,1974.02z"/>
	<path style="fill:#DC6D03;" d="M776.433,1155.837c-3.214,1.651-6.425,3.292-9.631,4.921c-4.877-4.03-9.651-8.058-14.422-11.983
		c-3.651,5.988-7.186,12.174-10.609,18.579l0,0c1.481,1.27,3.065,2.537,4.546,3.807c-2.951,1.474-5.899,2.949-8.746,4.425
		c-0.021,0.011-0.044,0.021-0.065,0.032c-0.875,1.713-1.74,3.439-2.595,5.18c-0.927,1.901-1.813,3.874-2.72,5.811
		c-0.818,1.747-1.652,3.467-2.455,5.244c-1.904,4.215-3.771,8.498-5.585,12.874c-0.112,0.274-0.225,0.549-0.337,0.824
		c0.004-0.002,0.008-0.004,0.012-0.006c13.264-6.472,26.635-13.051,40.11-19.842c1.2,0.971,2.404,1.942,3.611,2.914
		c0.002-0.007,0.004-0.015,0.005-0.022C770.293,1177.603,773.256,1166.68,776.433,1155.837z"/>
	<path style="fill:#DC6D03;" d="M744.927,1334.206c-16.88-13.029-33.145-26.118-48.799-39.27c-0.005-0.005-0.011-0.01-0.016-0.014
		c-0.181,0.813-0.353,1.655-0.534,2.473c-1.514,6.87-3.008,13.883-4.242,21.092c15.496,12.736,31.629,25.474,48.187,38.104
		c-19.742,9.022-38.953,17.513-57.635,25.368c-0.849,7.75-1.592,15.497-2.335,23.564c20.625-8.492,42.03-17.835,63.981-27.853
		c0-0.007,0-0.015,0-0.023C743.572,1363.198,744.041,1348.708,744.927,1334.206z"/>
	<path style="fill:#DC6D03;" d="M676.263,1462.626c22.078,17.515,45.323,35.028,69.417,52.435
		c-24.307,10.403-47.657,19.743-69.736,28.022c0.053,3.751,0.16,7.448,0.291,11.106c0.003,0.058,0.005,0.116,0.007,0.174
		c0.132,3.633,0.288,7.229,0.446,10.797c26.388-9.77,54.59-21.068,84.159-33.896c-0.003-0.009-0.004-0.019-0.007-0.029
		c-2.914-12.117-5.439-24.328-7.6-36.691c-26.458-19.207-51.919-38.618-75.874-58.102c-0.013-0.011-0.026-0.021-0.039-0.032
		c-0.041,0.839-0.078,1.694-0.12,2.534c-0.027,0.565-0.052,1.136-0.08,1.702C676.775,1447.873,676.44,1455.165,676.263,1462.626z"/>
	<path style="fill:#FECC4C;" d="M1357.017,1538.128c-26.288,35.124-67.643,60.534-129.501,68.129
		c-0.997,0.122-1.997,0.236-2.998,0.342c-5.2,3.22-10.413,6.426-15.634,9.616c36.407,17.514,71.752,33.647,105.081,47.764
		c34.564-23.125,68.06-46.691,99.807-70.454c0.003-0.007,0.005-0.014,0.006-0.021c3.076-9.322,5.764-18.953,8.08-28.847
		C1401.136,1556.673,1379.494,1547.83,1357.017,1538.128z"/>
	<path style="fill:#FECC4C;" d="M1396.292,1394.337c0.388,25.935-1.977,51.673-8.022,75.842
		c15.475-11.605,30.534-23.267,45.108-34.956c-0.001-0.01-0.001-0.02-0.001-0.03c-0.165-8.54-0.451-16.961-0.852-25.217
		C1420.673,1405.001,1408.587,1399.783,1396.292,1394.337z"/>
	<path style="fill:#FECC4C;" d="M1165.367,1618.019c-36.937-18.468-74.725-38.424-112.618-59.439
		c-37.998,20.91-75.784,40.652-112.616,58.803c37.256,22.395,74.937,43.942,112.404,64.216
		C1090.004,1661.537,1127.898,1640.308,1165.367,1618.019z"/>
	<path style="fill:#FECC4C;" d="M877.826,1453.605c-21.877-14.212-43.373-28.633-64.344-43.211
		c4.691,22.964,10.695,44.946,17.851,65.884c0.004,0.013,0.008,0.026,0.013,0.04
		C846.634,1469.027,862.148,1461.444,877.826,1453.605z"/>
	<path style="fill:#FECC4C;" d="M1094.308,1044.724c-13.654-8.716-27.197-17.526-40.603-26.408
		c-42.883,28.234-87.143,55.512-131.83,81.517c14.618,10.5,29.532,20.932,44.692,31.276
		C995.054,1074.985,1042.965,1049.926,1094.308,1044.724z"/>
	<path style="fill:#FECC4C;" d="M912.853,1269.448c8.987-4.908,17.984-9.881,26.985-14.913c0.944-41.646,7.45-75.974,18.121-103.935
		c-19.081-12.953-37.791-26.044-56.039-39.197c-27.037,15.45-54.073,30.349-80.904,44.629c-4.349,12.107-8.025,25.163-10.973,39.225
		c-0.002,0.008-0.004,0.016-0.006,0.024C842.503,1220.256,877.018,1245.083,912.853,1269.448z"/>
	<path style="fill:#FECC4C;" d="M1316.194,1687.542c-36.605,24.192-74.275,47.749-112.473,70.349
		c60.965-7.616,107.57-28.007,142.317-58.274C1336.288,1695.772,1326.332,1691.743,1316.194,1687.542z"/>
	<path style="fill:#FECC4C;" d="M1158.22,1759.396c-34.534-16.756-69.9-34.869-105.684-54.128
		c-8.978,4.766-17.926,9.467-26.831,14.094C1068.608,1743.25,1113.97,1756.92,1158.22,1759.396z"/>
	<path style="fill:#FECC4C;" d="M892.05,1280.592c-29.796-20.398-58.635-41.116-86.095-61.973
		c-4.457,31.293-5.698,67.052-3.273,107.858c0.001,0.019,0.001,0.037,0.003,0.056C831.957,1312.16,861.836,1296.812,892.05,1280.592
		z"/>
	<path style="fill:#FECC4C;" d="M918.798,1604.644c36.725-17.938,74.405-37.361,112.51-58.059
		c-44.792-25.368-89.477-52.116-133.101-79.925c-20.15,10.245-40.091,20.038-59.675,29.346
		c12.076,31.075,26.755,59.698,43.462,85.694c0.01,0.016,0.019,0.033,0.03,0.049C894.194,1589.455,906.46,1597.09,918.798,1604.644z
		"/>
	<path style="fill:#FECC4C;" d="M917.736,1628.315c-0.318,0.154-0.64,0.308-0.958,0.462c26.591,31.387,56.439,57.534,87.99,77.984
		c0.002,0.002,0.004,0.003,0.006,0.004c8.56-4.391,17.162-8.856,25.791-13.386C992.885,1672.682,955.098,1650.923,917.736,1628.315z
		"/>
	<path style="fill:#FECC4C;" d="M899.48,1442.671c20.942-10.724,42.122-21.861,63.399-33.379
		c-10.353-28.996-17.594-60.836-20.882-95.295c-10.255-6.66-20.435-13.374-30.524-20.136
		c-36.147,19.622-72.089,38.061-107.081,55.141c1.025,10.886,2.332,21.579,3.909,32.089c0,0.002,0,0.005,0.001,0.008
		C837.694,1401.956,868.223,1422.556,899.48,1442.671z"/>
	<path style="fill:#FECC4C;" d="M970.486,1428.791c-16.995,9.191-33.927,18.143-50.734,26.831
		c35.883,22.698,72.553,44.679,109.246,65.646C1005.803,1495.632,985.689,1464.632,970.486,1428.791z"/>
	<path style="fill:#FECC4C;" d="M1074.614,1693.486c36.087,19.106,71.646,37.15,106.248,53.708
		c37.999-22.289,75.573-45.535,112.192-69.524c-33.647-14.541-69.097-30.78-105.504-48.613
		C1150.081,1651.454,1112.19,1673.107,1074.614,1693.486z"/>
	<path style="fill:#FECC4C;" d="M939.893,1278.31c-2.539,1.403-5.078,2.8-7.615,4.192c2.642,1.757,5.292,3.511,7.944,5.26
		C940.084,1284.581,939.973,1281.419,939.893,1278.31z"/>
	<path style="fill:#FECC4C;" d="M1377.933,1181.145c-0.008-0.016-0.016-0.03-0.025-0.046c-2.679-5.23-5.443-10.335-8.284-15.31
		c-2.784,2.315-5.593,4.633-8.425,6.964C1366.791,1175.585,1372.373,1178.381,1377.933,1181.145z"/>
	<path style="fill:#FECC4C;" d="M1344.871,1187.951c19.117,35.297,34.017,77.618,43.095,127.612
		c9.937-7.874,19.65-15.768,29.12-23.668c0-0.002-0.001-0.005-0.002-0.007c-6.624-29.319-15.123-56.159-25.232-80.575
		C1376.382,1203.79,1360.701,1195.982,1344.871,1187.951z"/>
	<path style="fill:#FECC4C;" d="M1247.31,1081.313c27.874,17.403,53.698,41.145,75.812,71.861c5.878,3.089,11.74,6.146,17.592,9.177
		c6.05-4.93,11.982-9.831,17.812-14.734c-0.002-0.003-0.004-0.006-0.006-0.009c-23.869-36.583-52.418-65.409-84.094-87.091
		C1265.556,1067.463,1256.506,1074.4,1247.31,1081.313z"/>
	<path style="fill:#FECC4C;" d="M1376.31,1505.108c-2.321,5.183-4.871,10.25-7.654,15.17c19.818,8.486,39.044,16.363,57.474,23.538
		c0.004-0.018,0.005-0.037,0.009-0.055c4.561-25.758,6.893-53.143,7.329-81.761
		C1415.094,1476.43,1395.996,1490.822,1376.31,1505.108z"/>
	<path style="fill:#FECC4C;" d="M1391.76,1339.348c0.839,6.074,1.594,12.24,2.267,18.523c0.467,4.36,0.867,8.725,1.198,13.105
		c12.145,5.439,24.097,10.664,35.826,15.655c-0.002-0.014-0.003-0.029-0.004-0.043c-1.962-25.147-5.05-48.892-9.173-71.293
		C1412.062,1323.327,1402.02,1331.348,1391.76,1339.348z"/>
	<path style="fill:#FECC4C;" d="M1337.211,1673.531c8.597,3.489,17.043,6.834,25.324,10.033c0.005-0.005,0.008-0.01,0.012-0.014
		c14.379-15.62,26.272-33.269,35.952-52.684C1378.617,1645.229,1358.155,1659.47,1337.211,1673.531z"/>
	<path style="fill:#FECC4C;" d="M903.407,1086.458c40.787-23.557,81.303-48.273,120.737-73.824c-0.049,0.006-0.097,0.014-0.147,0.02
		c-56.142,6.782-106.204,22.978-144.563,55.919c-0.007,0.005-0.013,0.01-0.019,0.016
		C887.306,1074.56,895.313,1080.52,903.407,1086.458z"/>
	<path style="fill:#FECC4C;" d="M883.453,1097.922c-6.523-4.842-12.986-9.7-19.377-14.567
		c-11.115,11.995-20.967,25.784-29.379,41.599c-0.012,0.023-0.026,0.043-0.038,0.067
		C850.881,1116.197,867.156,1107.152,883.453,1097.922z"/>
	<path style="fill:#FECC4C;" d="M1132.809,1044.271c32.019,2.202,64.167,10.554,94.469,25.784
		c9.546-7.137,18.936-14.294,28.165-21.474c-0.005-0.003-0.011-0.006-0.016-0.009c-47.475-27.326-100.883-40.025-155.597-40.025
		c-7.532,0-14.996,0.098-22.404,0.307c-0.021,0-0.042,0-0.063,0C1095.613,1020.828,1114.125,1032.645,1132.809,1044.271z"/>
	<path style="fill:#EFA800;" d="M1388.27,1470.178c-3.026,12.097-6.972,23.794-11.959,34.929
		c19.686-14.286,38.783-28.678,57.159-43.108c0-0.025,0-0.051,0-0.076c0.062-4.088,0.086-8.196,0.071-12.333
		c-0.017-4.834-0.071-9.622-0.163-14.368C1418.804,1446.912,1403.745,1458.574,1388.27,1470.178z"/>
	<path style="fill:#EFA800;" d="M911.473,1293.861c10.089,6.762,20.269,13.476,30.524,20.136c-0.345-3.615-0.648-7.269-0.905-10.941
		c-0.364-5.196-0.653-10.282-0.871-15.292c-2.653-1.75-5.302-3.504-7.944-5.26c2.538-1.392,5.076-2.789,7.615-4.192
		c-0.213-8.182-0.228-16.098-0.054-23.776c-9.001,5.032-17.998,10.005-26.985,14.913c-35.835-24.364-70.351-49.192-102.814-74.168
		c-1.568,7.48-2.931,15.255-4.08,23.318c-0.001,0.007-0.003,0.014-0.003,0.021c27.46,20.858,56.299,41.576,86.095,61.973
		c-30.214,16.22-60.093,31.567-89.365,45.942c0.156,2.623,0.326,5.253,0.513,7.918c0.341,4.873,0.738,9.705,1.19,14.505
		c0.002,0.015,0.003,0.03,0.004,0.045C839.384,1331.922,875.326,1313.483,911.473,1293.861z"/>
	<path style="fill:#EFA800;" d="M1368.657,1520.277c-3.5,6.188-7.367,12.141-11.64,17.85c22.477,9.702,44.119,18.546,64.842,26.529
		c0.002-0.01,0.004-0.021,0.006-0.031c1.595-6.813,3.013-13.744,4.265-20.81C1407.7,1536.64,1388.475,1528.764,1368.657,1520.277z"
		/>
	<path style="fill:#EFA800;" d="M1395.225,1370.976c0.586,7.774,0.95,15.585,1.067,23.361c12.295,5.446,24.381,10.664,36.233,15.639
		c0-0.011-0.001-0.021-0.002-0.032c-0.385-7.909-0.875-15.664-1.472-23.313C1419.321,1381.64,1407.37,1376.415,1395.225,1370.976z"
		/>
	<path style="fill:#EFA800;" d="M1340.714,1162.35c-5.852-3.031-11.714-6.088-17.592-9.177
		c7.724,10.729,15.002,22.321,21.749,34.778c15.83,8.031,31.511,15.839,46.98,23.362c-0.005-0.01-0.01-0.02-0.014-0.031
		c-4.345-10.491-8.981-20.524-13.904-30.137c-5.56-2.764-11.141-5.56-16.735-8.392c2.833-2.331,5.641-4.649,8.425-6.964
		c-0.003-0.005-0.006-0.009-0.009-0.014c-3.576-6.258-7.268-12.3-11.089-18.157
		C1352.696,1152.519,1346.763,1157.42,1340.714,1162.35z"/>
	<path style="fill:#EFA800;" d="M1313.965,1663.978c-33.33-14.117-68.674-30.25-105.081-47.764
		c5.222-3.19,10.435-6.396,15.634-9.616c-6.176,0.65-12.413,0.971-18.696,0.971c-61.11,0-126.296-30.458-176.825-86.302
		c-36.693-20.967-73.364-42.948-109.246-65.646c16.807-8.687,33.739-17.639,50.734-26.831c-2.696-6.355-5.229-12.841-7.606-19.499
		c-21.277,11.518-42.458,22.655-63.399,33.379c-31.257-20.115-61.786-40.715-91.179-61.572c1.489,9.924,3.216,19.673,5.172,29.254
		c0.003,0.013,0.005,0.026,0.008,0.04c20.971,14.579,42.468,28.999,64.344,43.211c-15.678,7.839-31.192,15.422-46.48,22.712
		c2.276,6.658,4.673,13.221,7.179,19.668c0.002,0.006,0.004,0.013,0.007,0.021c19.584-9.308,39.525-19.101,59.675-29.346
		c43.624,27.809,88.31,54.557,133.101,79.925c-38.105,20.698-75.785,40.121-112.51,58.059
		c-12.337-7.554-24.604-15.189-36.775-22.896c10.793,16.791,22.412,32.458,34.752,47.024c0.001,0.001,0.002,0.003,0.003,0.004
		c0.318-0.154,0.64-0.308,0.958-0.462c37.362,22.608,75.149,44.367,112.829,65.064c-8.629,4.53-17.231,8.994-25.791,13.386
		c6.902,4.474,13.878,8.67,20.928,12.596c0,0,0.001,0,0.002,0.001c8.906-4.627,17.854-9.328,26.831-14.094
		c35.784,19.259,71.15,37.372,105.684,54.128c0.004,0,0.009,0,0.013,0c4.87,0.272,9.719,0.41,14.556,0.41
		c10.25,0,20.432-0.616,30.472-1.858c0.159-0.02,0.302-0.037,0.46-0.057c0,0,0.001,0,0.001,0
		c38.198-22.6,75.868-46.157,112.473-70.349c10.138,4.201,20.094,8.23,29.844,12.074c0.002-0.002,0.004-0.003,0.006-0.005
		c5.827-5.076,11.318-10.428,16.491-16.047c-8.281-3.199-16.727-6.544-25.324-10.033c20.944-14.061,41.406-28.302,61.289-42.665
		c0.006-0.012,0.011-0.024,0.017-0.036c5.885-11.807,10.953-24.268,15.255-37.305
		C1382.025,1617.288,1348.53,1640.854,1313.965,1663.978z M940.132,1617.382c36.832-18.152,74.618-37.894,112.616-58.803
		c37.894,21.016,75.681,40.971,112.618,59.439c-37.469,22.289-75.362,43.518-112.831,63.58
		C1015.069,1661.324,977.388,1639.778,940.132,1617.382z M1180.863,1747.193c-34.602-16.558-70.161-34.602-106.248-53.708
		c37.575-20.379,75.467-42.032,112.936-64.428c36.407,17.832,71.857,34.072,105.504,48.613
		C1256.436,1701.659,1218.862,1724.904,1180.863,1747.193z"/>
	<path style="fill:#EFA800;" d="M1387.966,1315.563c1.405,7.738,2.674,15.679,3.793,23.785c10.26-8,20.302-16.021,30.114-24.054
		c-0.002-0.013-0.005-0.024-0.007-0.036c-1.464-7.954-3.06-15.747-4.781-23.363
		C1407.617,1299.795,1397.903,1307.689,1387.966,1315.563z"/>
	<path style="fill:#EFA800;" d="M834.659,1125.022c-5.081,9.562-9.636,19.866-13.624,30.96c-0.006,0.016-0.013,0.032-0.018,0.048
		c26.831-14.28,53.867-29.179,80.904-44.629c18.248,13.153,36.958,26.244,56.039,39.197c2.625-6.878,5.5-13.367,8.607-19.491
		c-15.16-10.343-30.073-20.776-44.692-31.276c44.687-26.005,88.947-53.283,131.83-81.517c13.407,8.882,26.949,17.692,40.603,26.408
		c6.994-0.708,14.052-1.049,21.133-1.049c5.778,0,11.571,0.197,17.368,0.596c-18.684-11.626-37.196-23.442-55.446-35.416
		c-18.197,0.515-36.001,1.705-53.219,3.78c-39.434,25.551-79.95,50.268-120.737,73.824c-8.094-5.938-16.102-11.898-23.992-17.87
		c-5.332,4.58-10.439,9.486-15.303,14.733c-0.011,0.012-0.023,0.023-0.035,0.035c6.391,4.866,12.853,9.724,19.377,14.567
		C867.156,1107.152,850.881,1116.197,834.659,1125.022z"/>
	<path style="fill:#EFA800;" d="M1255.444,1048.58c-9.229,7.18-18.619,14.337-28.165,21.474c6.778,3.406,13.459,7.155,20.031,11.259
		c9.197-6.913,18.246-13.85,27.116-20.797c-0.005-0.004-0.01-0.007-0.015-0.01
		C1268.201,1056.257,1261.883,1052.287,1255.444,1048.58z"/>
	<path style="fill:#FFDB78;" d="M1032.477,1370.389c-30.526-18.299-60.816-37.125-90.48-56.392
		c3.288,34.459,10.529,66.299,20.882,95.295C986.033,1396.759,1009.3,1383.775,1032.477,1370.389z"/>
	<path style="fill:#FFDB78;" d="M1053.068,1358.395c41.077-24.094,81.729-49.356,121.108-75.254
		c-40.44-22.503-80.987-46.173-120.79-70.797c-37.505,22.881-75.569,45.016-113.493,65.967c0.08,3.108,0.191,6.271,0.329,9.453
		C977.01,1312.024,1014.853,1335.624,1053.068,1358.395z"/>
	<path style="fill:#FFDB78;" d="M1224.589,1310.439c-9.841-5.23-19.717-10.548-29.61-15.942
		c-39.378,26.111-80.03,51.585-121.214,75.998c44.368,25.792,88.948,50.205,132.784,72.813
		c12.673-8.059,25.246-16.207,37.691-24.429C1237.215,1392.265,1234.697,1355.187,1224.589,1310.439z"/>
	<path style="fill:#FFDB78;" d="M1186.064,1456.258c-43.943-22.927-88.63-47.658-132.997-73.769
		c-27.53,15.994-55.139,31.46-82.582,46.302c15.203,35.841,35.317,66.841,58.513,92.476c7.918,4.525,15.838,9.003,23.75,13.43
		C1097.434,1509.966,1142.227,1483.643,1186.064,1456.258z"/>
	<path style="fill:#FFDB78;" d="M1224.518,1606.598c1.001-0.105,2.001-0.219,2.998-0.342
		c61.858-7.594,103.213-33.005,129.501-68.129c-5.561-2.4-11.173-4.852-16.834-7.358
		C1303.027,1556.665,1264.131,1582.063,1224.518,1606.598z"/>
	<path style="fill:#FFDB78;" d="M1216.721,1279.938c-0.738,0.502-1.473,1.001-2.212,1.503c1.045,0.566,2.09,1.131,3.135,1.696
		C1217.342,1282.074,1217.034,1281.008,1216.721,1279.938z"/>
	<path style="fill:#FFDB78;" d="M1152.569,1148.693c-25.885,17.433-52.424,34.589-79.335,51.338
		c39.804,24.412,80.349,47.871,120.684,70.055c5.431-3.634,10.83-7.28,16.198-10.939
		C1192.993,1209.573,1169.166,1174.225,1152.569,1148.693z"/>
	<path style="fill:#FFDB78;" d="M1186.488,1605.282c45.004-27.173,89.159-55.512,131.404-84.596
		c-35.557-16.134-72.494-33.965-110.175-53.283c-43.838,27.597-88.63,54.133-133.421,79.289
		C1112.19,1567.495,1149.869,1587.132,1186.488,1605.282z"/>
	<path style="fill:#FFDB78;" d="M1053.386,1187.718c29.902-18.514,59.385-37.485,88.065-56.827
		c-9.922-17.235-12.412-28.503,0.47-36.324c6.475-3.931,14.328-5.947,23.171-6.12c-23.847-14.24-47.479-28.847-70.784-43.723
		c-51.343,5.202-99.255,30.261-127.741,86.385C994.778,1150.355,1023.836,1169.284,1053.386,1187.718z"/>
	<path style="fill:#FFDB78;" d="M1204.001,1087.201c7.855-5.702,15.616-11.418,23.278-17.147
		c-30.302-15.23-62.451-23.582-94.469-25.784C1156.327,1058.903,1180.12,1073.237,1204.001,1087.201z"/>
	<path style="fill:#FFDB78;" d="M1367.95,1381.548c-3.41,46.017-22.509,83.334-67.151,83.431c-0.081,0-0.163,0-0.243,0
		c-26.128,0-40.194-9.142-48.892-25.881c-7.809,5.144-15.667,10.262-23.568,15.355c37.681,19,74.512,36.619,109.751,52.328
		c17.223-12.119,34.057-24.33,50.423-36.603c6.045-24.169,8.41-49.907,8.022-75.842
		C1386.96,1390.203,1377.505,1385.936,1367.95,1381.548z"/>
	<path style="fill:#FFDB78;" d="M1319.934,1205.504c10.89,17.662,20.8,37.19,29.207,58.47c7.977,20.194,14.115,44.184,17.193,68.429
		c7.322-5.602,14.534-11.216,21.632-16.84c-9.078-49.994-23.978-92.315-43.095-127.612c-0.502-0.255-1.002-0.508-1.504-0.763
		C1335.682,1193.299,1327.869,1199.404,1319.934,1205.504z"/>
	<path style="fill:#FFDB78;" d="M1223.852,1098.665c33.218,19.085,66.44,37.256,99.27,54.509
		c-22.115-30.715-47.938-54.457-75.812-71.861C1239.587,1087.118,1231.761,1092.905,1223.852,1098.665z"/>
	<path style="fill:#FFDB78;" d="M1368.369,1357.261c0.018,0.503,0.034,1.009,0.048,1.512c9.028,4.174,17.969,8.245,26.807,12.203
		c-0.331-4.379-0.731-8.744-1.198-13.105c-0.673-6.283-1.429-12.449-2.267-18.523
		C1384.083,1345.333,1376.285,1351.306,1368.369,1357.261z"/>
	<path style="fill:#FFDB78;" d="M939.839,1254.535c31.29-17.497,62.622-35.733,93.699-54.61
		c-25.666-16.094-50.93-32.593-75.577-49.326C947.289,1178.56,940.782,1212.889,939.839,1254.535z"/>
	<path style="fill:#FFDB78;" d="M1368.657,1520.277c2.782-4.92,5.333-9.987,7.654-15.17c-5.313,3.855-10.672,7.706-16.068,11.545
		C1363.059,1517.873,1365.863,1519.081,1368.657,1520.277z"/>
	<path style="fill:#FFDB78;" d="M1308.358,1187.929c4.887-3.781,9.731-7.568,14.523-11.355
		c-13.66-7.091-27.384-14.365-41.152-21.801C1290.913,1164.77,1299.851,1175.826,1308.358,1187.929z"/>
	<path style="fill:#F7BF15;" d="M1366.334,1332.403c1.054,8.306,1.749,16.633,2.035,24.858c7.915-5.954,15.714-11.928,23.39-17.913
		c-1.12-8.107-2.388-16.047-3.793-23.785C1380.868,1321.187,1373.656,1326.801,1366.334,1332.403z"/>
	<path style="fill:#F7BF15;" d="M1368.418,1358.772c0.223,7.741,0.081,15.368-0.468,22.776c9.555,4.388,19.01,8.654,28.342,12.788
		c-0.117-7.776-0.481-15.587-1.067-23.361C1386.386,1367.018,1377.445,1362.947,1368.418,1358.772z"/>
	<path style="fill:#F7BF15;" d="M1033.537,1199.925c-31.077,18.877-62.408,37.113-93.699,54.61
		c-0.174,7.678-0.159,15.594,0.054,23.776c37.924-20.951,75.987-43.086,113.493-65.967c39.803,24.624,80.35,48.294,120.79,70.797
		c-39.38,25.898-80.031,51.161-121.108,75.254c-38.215-22.771-76.058-46.37-112.846-70.632c0.218,5.011,0.507,10.096,0.871,15.292
		c0.257,3.672,0.559,7.326,0.905,10.941c29.663,19.267,59.953,38.093,90.48,56.392c-23.177,13.385-46.443,26.37-69.598,38.903
		c2.377,6.658,4.911,13.144,7.606,19.499c27.443-14.841,55.052-30.308,82.582-46.302c44.366,26.111,89.053,50.842,132.997,73.769
		c-43.838,27.385-88.63,53.707-133.316,78.439c-7.913-4.427-15.832-8.905-23.75-13.43c50.528,55.844,115.715,86.302,176.825,86.302
		c6.282,0,12.52-0.321,18.696-0.971c39.613-24.535,78.509-49.933,115.665-75.828c5.661,2.505,11.273,4.958,16.834,7.358
		c4.273-5.709,8.14-11.662,11.64-17.85c-2.793-1.196-5.598-2.404-8.415-3.625c5.397-3.839,10.755-7.69,16.068-11.545
		c4.987-11.136,8.933-22.832,11.959-34.929c-16.366,12.273-33.2,24.484-50.423,36.603c-35.24-15.709-72.07-33.328-109.751-52.328
		c7.901-5.092,15.759-10.211,23.568-15.355c-3.033-5.838-5.414-12.601-7.425-20.22c-12.444,8.223-25.017,16.37-37.691,24.429
		c-43.836-22.608-88.416-47.021-132.784-72.813c41.185-24.413,81.837-49.887,121.214-75.998c9.893,5.394,19.769,10.712,29.61,15.942
		c-1.99-8.809-4.276-17.921-6.946-27.302c-1.045-0.565-2.09-1.13-3.135-1.696c0.74-0.501,1.474-1.001,2.212-1.503
		c-1.709-5.849-3.569-11.8-5.604-17.853c-0.331-0.986-0.665-1.964-1.001-2.939c-5.368,3.659-10.767,7.305-16.198,10.939
		c-40.334-22.184-80.88-45.643-120.684-70.055c26.911-16.749,53.45-33.904,79.335-51.338c-4.262-6.556-8.046-12.465-11.119-17.802
		c-28.68,19.343-58.163,38.313-88.065,56.827c-29.549-18.434-58.607-37.363-86.819-56.609c-3.108,6.124-5.983,12.612-8.607,19.491
		C982.608,1167.331,1007.871,1183.831,1033.537,1199.925z M1207.717,1467.403c37.68,19.318,74.618,37.15,110.175,53.283
		c-42.245,29.084-86.4,57.423-131.404,84.596c-36.62-18.15-74.299-37.787-112.192-58.591
		C1119.087,1521.536,1163.879,1495,1207.717,1467.403z"/>
	<path style="fill:#F7BF15;" d="M1165.092,1088.447c0.414-0.008,0.826-0.012,1.244-0.012c31.702-0.001,75.735,23.169,115.393,66.338
		c13.768,7.436,27.492,14.71,41.152,21.801c-4.792,3.788-9.636,7.575-14.523,11.355c3.961,5.635,7.827,11.495,11.576,17.574
		c7.935-6.099,15.748-12.204,23.433-18.316c0.502,0.255,1.002,0.509,1.504,0.763c-6.747-12.457-14.025-24.049-21.749-34.778
		c-32.831-17.253-66.053-35.423-99.27-54.509c7.909-5.76,15.735-11.547,23.458-17.352c-6.572-4.103-13.253-7.852-20.031-11.259
		c-7.662,5.729-15.422,11.444-23.278,17.147c-23.881-13.964-47.674-28.298-71.192-42.931c-5.797-0.399-11.589-0.596-17.368-0.596
		c-7.081,0-14.139,0.34-21.133,1.049C1117.613,1059.6,1141.245,1074.207,1165.092,1088.447z"/>
	<path style="fill:#FFE59D;" d="M1326.49,1362.003c-33.283-15.938-67.397-33.226-101.9-51.564
		c10.108,44.748,12.626,81.826,19.649,108.439C1272.441,1400.243,1299.977,1381.226,1326.49,1362.003z"/>
	<path style="fill:#FFE59D;" d="M1308.358,1187.929c-8.507-12.103-17.445-23.159-26.629-33.156
		c-25.388-13.711-50.922-27.969-76.453-42.627c-17.191,12.285-34.793,24.483-52.707,36.547
		c16.596,25.532,40.424,60.88,57.547,110.454C1244.369,1235.799,1277.302,1211.952,1308.358,1187.929z"/>
	<path style="fill:#FFE59D;" d="M1300.556,1464.979c0.081,0,0.162,0,0.243,0c44.642-0.097,63.741-37.414,67.151-83.431
		c-6.59-3.026-13.227-6.109-19.913-9.25c-30.852,22.601-63.163,44.924-96.373,66.8
		C1260.361,1455.838,1274.427,1464.979,1300.556,1464.979z"/>
	<path style="fill:#FFE59D;" d="M1185.427,1100.469c-6.794-3.976-13.573-7.984-20.334-12.022c-8.843,0.173-16.696,2.19-23.171,6.12
		c-12.883,7.821-10.392,19.089-0.47,36.324C1156.344,1120.847,1171.024,1110.7,1185.427,1100.469z"/>
	<path style="fill:#FFE59D;" d="M1345.489,1348.099c7.04-5.219,13.991-10.452,20.845-15.696
		c-3.077-24.245-9.216-48.235-17.193-68.429c-8.407-21.281-18.317-40.808-29.207-58.47c-32.604,25.059-67.24,49.978-103.213,74.435
		c0.313,1.07,0.62,2.136,0.922,3.198C1261.058,1306.587,1304.134,1328.406,1345.489,1348.099z"/>
	<path style="fill:#FFE59D;" d="M1368.418,1358.772c-0.015-0.502-0.031-1.009-0.048-1.512c-0.409,0.308-0.817,0.614-1.227,0.922
		C1367.568,1358.38,1367.993,1358.576,1368.418,1358.772z"/>
	<path style="fill:#FDD040;" d="M1348.037,1372.299c6.685,3.141,13.323,6.224,19.913,9.25c0.549-7.408,0.691-15.035,0.468-22.776
		c-0.425-0.197-0.85-0.393-1.275-0.59c0.41-0.308,0.818-0.614,1.227-0.922c-0.286-8.225-0.981-16.552-2.035-24.858
		c-6.854,5.244-13.805,10.477-20.845,15.696c-41.355-19.693-84.431-41.512-127.845-64.962c2.67,9.382,4.956,18.493,6.946,27.302
		c34.503,18.338,68.617,35.626,101.9,51.564c-26.513,19.222-54.048,38.24-82.251,56.875c2.011,7.619,4.392,14.382,7.425,20.22
		C1284.874,1417.223,1317.185,1394.9,1348.037,1372.299z"/>
	<path style="fill:#FDD040;" d="M1319.934,1205.504c-3.749-6.08-7.615-11.939-11.576-17.574
		c-31.057,24.023-63.989,47.87-98.242,71.218c0.337,0.975,0.67,1.953,1.001,2.939c2.035,6.053,3.895,12.004,5.604,17.853
		C1252.694,1255.482,1287.331,1230.562,1319.934,1205.504z"/>
	<path style="fill:#FDD040;" d="M1205.276,1112.146c25.532,14.658,51.066,28.917,76.453,42.627
		c-39.658-43.169-83.691-66.339-115.393-66.338c-0.419,0-0.83,0.004-1.244,0.012c6.762,4.038,13.54,8.046,20.334,12.022
		c-14.403,10.231-29.083,20.377-43.976,30.422c3.072,5.337,6.857,11.246,11.119,17.802
		C1170.483,1136.628,1188.085,1124.431,1205.276,1112.146z"/>
</g>
</svg>
